<svg width="418" height="1006" viewBox="0 0 418 1006" fill="none" xmlns="http://www.w3.org/2000/svg">
<path fill-rule="evenodd" clip-rule="evenodd" d="M329.857 0.876962C329.506 1.83896 328.137 3.93896 326.815 5.54196C325.493 7.14496 323.72 10.182 322.876 12.292C321.251 16.355 320.565 16.647 315.958 15.244C314.364 14.758 311.187 13.799 308.898 13.113C302.864 11.304 300.152 12.341 297.769 17.367C296.658 19.71 294.316 22.977 292.565 24.627C290.813 26.277 288.788 28.76 288.064 30.144C287.177 31.843 285.318 33.044 282.352 33.837C268.622 37.51 253.304 56.338 251.912 71.254C251.302 77.783 251.302 77.783 240.449 89.205C228.42 101.865 227.08 104.857 232.442 107.078C240.736 110.514 243.014 117.181 242.022 135.122C241.131 151.232 242.557 157.072 249.087 164.053C258.363 173.97 269.239 176.679 277.446 171.118C283.677 166.895 287.382 166.139 301.859 166.133C315.557 166.127 318.992 165.231 321.995 160.883C322.852 159.642 325.692 157.463 328.306 156.04C337.208 151.196 340.955 140.847 334.666 138.474C328.6 136.184 329.915 125.931 336.354 125.311C339.08 125.048 339.735 124.498 340.222 122.061C341.153 117.407 342.559 118.65 342.559 124.127C342.559 129.679 343.352 130.195 346.78 126.877C349.34 124.399 352.276 112.511 353.633 99.127C355.146 84.205 357.997 75.279 363.056 69.627C371.281 60.44 370.954 40.413 362.517 36.608C357.642 34.41 354.113 30.607 352.626 25.949C349.045 14.734 331.751 -4.31004 329.857 0.876962ZM216.559 67.143C216.559 67.701 214.516 70.964 212.018 74.393C205.35 83.549 205.404 89.036 212.246 97.166C219.935 106.305 227.958 96.79 222.075 85.509C221.093 83.628 220.569 79.762 220.565 74.377C220.559 66.796 220.397 66.127 218.559 66.127C217.459 66.127 216.559 66.584 216.559 67.143ZM148.79 135.877C141.458 143.213 135.634 148.026 130.451 151.034C123.341 155.158 122.532 155.99 117.808 164.034C110.3 176.816 100.692 188.467 91.6973 195.696C87.2953 199.234 82.8323 203.366 81.7793 204.878C77.2383 211.395 72.6113 220.971 71.9933 225.132C71.4103 229.054 70.2173 230.774 62.6293 238.627C50.3383 251.348 51.1283 249.685 50.5593 264.028C50.0593 276.627 50.0593 276.627 47.0593 276.965C45.4093 277.152 43.5643 277.713 42.9603 278.213C41.5693 279.362 40.3333 297.379 41.4393 300.382C43.5263 306.047 43.8133 308.825 42.0583 306.377C36.1063 298.072 31.0423 316.385 36.4013 326.837C39.0643 332.032 39.0833 333.191 36.5593 336.4C35.4593 337.798 34.5593 340.361 34.5593 342.094C34.5593 343.916 34.1423 344.987 33.5703 344.634C31.7863 343.531 26.8253 352.84 26.0993 358.652C25.6113 362.559 24.3793 365.655 21.8283 369.385C19.8573 372.268 15.9953 378.002 13.2483 382.127C10.5003 386.252 7.19626 390.899 5.90527 392.454C2.84328 396.143 2.78227 403.364 5.71427 415.316C7.86826 424.102 7.86826 424.102 5.70027 432.365C4.50827 436.909 3.53827 441.433 3.54527 442.417C3.55327 443.402 2.61426 445.486 1.46027 447.048C-3.12372 453.247 3.48531 456.175 15.6713 453.343C24.1472 451.373 26.1993 451.989 24.1803 455.894C21.6093 460.865 21.2533 465.474 23.1113 469.715C24.7463 473.447 24.8553 473.514 25.4743 471.182C27.4593 463.702 36.6253 466.832 36.3993 474.912C36.2973 478.551 36.1083 479.355 35.8793 477.127C35.1393 469.928 34.7083 469.127 31.5753 469.127C26.8153 469.127 24.5233 475.967 28.5593 478.127C31.2473 479.565 31.0773 481.295 27.9623 484.203C20.3673 491.292 20.3723 499.072 27.9713 499.112C29.5733 499.12 32.9483 500.356 35.4713 501.858C37.9943 503.36 42.7003 505.143 45.9283 505.82C54.5263 507.622 64.3663 512.49 65.5143 515.51C67.9553 521.928 60.0713 534.857 51.5593 538.396C45.4353 540.942 44.1243 543.316 43.5073 552.981C43.0623 559.944 42.1373 563.704 38.7573 572.302C32.5053 588.2 32.7363 590.983 41.0593 600.052C47.5593 607.135 47.5593 607.135 47.5593 615.756C47.5593 626.333 50.8743 635.186 55.5613 637.128C59.9013 638.925 62.3863 642.214 62.7393 646.627C63.0593 650.627 63.0593 650.627 69.5593 651.23C88.7632 653.011 95.6673 658.383 91.6863 668.444C84.2833 687.15 82.8093 710.189 87.9193 727.309C90.5113 735.991 90.5113 735.991 87.7853 741.809C85.1723 747.387 85.0713 748.199 85.3373 761.464C85.5823 773.674 85.3883 775.672 83.6853 778.464C82.6243 780.204 81.3003 784.606 80.7443 788.247C80.1873 791.889 78.7933 796.708 77.6453 798.958C70.5573 812.851 76.5013 826.172 95.9673 840.019C107.044 847.898 110.606 849.841 120.733 853.531C130.792 857.197 141.553 871.488 143.95 884.366C144.358 886.561 146.266 889.978 148.57 892.64C150.729 895.134 152.986 899.076 153.586 901.401C154.187 903.725 154.937 906.527 155.254 907.627C156.139 910.702 165.276 925.561 167.544 927.613C168.988 928.92 169.559 930.696 169.559 933.881C169.559 942.716 179.081 953.742 189.663 957.159C192.631 958.118 199.784 960.929 205.559 963.407C216.384 968.051 222.546 970.596 233.264 974.851C245.938 979.881 248.808 987.727 238.714 989.746C236.979 990.093 235.559 990.682 235.559 991.056C235.559 992.246 241.946 997.846 245.132 999.449C246.822 1000.3 248.789 1001.7 249.504 1002.56C251.302 1004.73 254.893 1004.52 257.059 1002.13C259.528 999.399 261.888 999.615 265.774 1002.92C268.881 1005.57 269.573 1005.72 278.545 1005.67C289.127 1005.62 291.47 1003.97 285.87 1000.52C284.324 999.567 279.009 994.865 274.059 990.072C269.109 985.279 263.763 980.743 262.178 979.992C260.11 979.012 258.761 977.175 257.398 973.483C255.338 967.906 251.283 963.127 248.61 963.127C247.688 963.127 245.611 961.725 243.996 960.012C242.381 958.299 239.253 956.11 237.045 955.149C231.706 952.823 231.473 952.44 227.238 939.027C224.371 929.949 222.74 926.471 219.733 923.027C201.474 902.117 185.771 876.072 179.7 856.627C177.956 851.042 174.628 843.405 172.163 839.331C167.439 831.523 166.187 826.646 164.659 810.086C164.01 803.049 163.291 800.326 161.303 797.378C159.912 795.315 158.216 791.827 157.534 789.627C156.852 787.427 152.528 778.137 147.926 768.983C137.392 748.028 135.72 731.696 143.576 726.497C148.754 723.07 148.672 723.587 148.341 696.627C148.059 673.627 148.059 673.627 144.559 673.306C139.684 672.858 139.301 672.203 139.041 663.868C138.915 659.814 138.523 655.589 138.171 654.479C137.692 652.969 138.137 652.185 139.939 651.364C142.159 650.352 142.376 649.606 142.704 641.867C143.145 631.432 146.37 625.376 154.002 620.653C162.21 615.573 187.739 615.496 198.493 620.518C205.512 623.796 216.057 627.127 219.416 627.127C220.206 627.127 223.149 628.627 225.955 630.461C237.061 637.717 250.158 640.093 270.059 638.462C276.659 637.921 283.101 637.85 284.374 638.303C285.647 638.756 289.247 639.129 292.374 639.132C300.108 639.138 309.639 642.997 311.179 646.745C314.312 654.368 325.738 661.127 335.491 661.127C338.163 661.127 343.208 661.986 346.704 663.037C350.199 664.087 358.009 666.124 364.059 667.563C370.109 669.003 379.132 671.293 384.11 672.654C389.088 674.014 395.166 675.127 397.618 675.127C400.497 675.127 403.801 676.046 406.951 677.723C411.794 680.301 411.843 680.305 414.38 678.412C418.642 675.23 418.146 674.268 410.396 670.687C406.357 668.821 401.028 665.686 398.555 663.72C394.895 660.811 393.222 660.148 389.559 660.156C387.084 660.161 380.725 659.387 375.428 658.436C365.797 656.707 365.797 656.707 365.143 649.49C364.613 643.646 364.876 641.123 366.524 636.231C369.281 628.047 369.09 624.404 365.559 617.787C362.245 611.576 361.884 608.603 364.091 605.686C369.043 599.138 364.566 594.127 353.763 594.127C340.703 594.127 313.451 585.648 302.304 578.117C292.953 571.799 287.917 569.943 275.059 568.077C262.943 566.32 256.122 561.135 251.226 549.962C248.652 544.086 246.41 542.127 242.26 542.127C235.048 542.127 228.591 529.83 233.193 524.859C234.839 523.082 236.716 520.377 237.364 518.849C238.904 515.216 240.855 514.574 245.601 516.141C250.807 517.859 252.559 516.434 252.559 510.482C252.559 501.095 264.418 492.671 279.727 491.185C291.356 490.055 300.488 486.714 311.059 479.722C315.459 476.811 324.496 470.822 331.142 466.413C342.16 459.102 352.282 454.127 356.136 454.127C364.327 454.127 367.728 448.294 368.672 432.627C369.476 419.291 371.874 408.351 375.591 401.065C377.768 396.796 378.15 392.118 376.46 390.428C374.756 388.724 376.222 385.85 380.063 383.368C387.336 378.668 384.818 360.411 375.158 347.799C364.867 334.363 365.187 318.499 375.791 316.412C380.776 315.43 381.547 313.427 379.149 307.688C375.944 300.017 361.074 297.755 349.059 303.11C345.992 304.477 340.906 305.595 335.903 306.002C328.772 306.582 327.074 307.118 322.403 310.262C319.464 312.24 316.512 314.16 315.843 314.53C315.175 314.9 312.83 314.286 310.633 313.165C304.797 310.187 303.434 310.505 288.059 318.42C274.679 325.308 273.944 325.847 271.456 330.596C268.236 336.743 265.198 339.082 258.927 340.241C243.551 343.083 214.099 364.621 205.775 379.111C204.348 381.595 201.429 386.244 199.288 389.443C193.857 397.556 194.338 398.127 206.614 398.127C225.097 398.127 232.293 406.269 225.653 419.669C220.394 430.283 219.632 430.747 206.059 431.591C179.228 433.261 166.335 439.588 161.156 453.627C160.142 456.377 157.976 460.756 156.343 463.358C151.719 470.728 150.773 475.252 151.328 487.354C151.865 499.073 150.881 502.287 146.336 503.666C143.426 504.549 139.559 508.07 139.559 509.836C139.559 516.294 118.978 527.424 114 523.659C112.933 522.851 110.439 522.176 108.459 522.159C103.789 522.118 97.9813 517.924 92.4553 510.605C87.8793 504.545 84.2733 502.127 79.8123 502.127C74.4383 502.127 66.5593 491.684 66.5593 484.56C66.5593 481.295 68.4853 484.057 66.5593 484.56C67.3805 479.312 64.3805 481.703 65.5143 478.127C69.3805 477.127 65.5143 475.693 66.5593 472.812C69.4763 474.723 70.5163 469.511 70.5443 465.332C70.5703 461.447 74.5953 458.741 86.2703 454.758C97.4813 450.933 97.4813 450.933 107.506 440.487C119.757 427.723 122.689 426.179 134.75 426.149C144.547 426.124 144.428 426.206 146.381 418.127C149.236 406.321 150.099 404.744 142.38 404.175C149.38 404.175 147.9 409.75 147.88 399.175C147.86 388.254 148.88 397.675 149.38 390.175C158.534 387.283 158.832 388.714 153.052 380.457C156.642 389.048 169.925 388.901 173.516 380.23C174.676 377.431 174.528 376.323 172.13 369.862C168.523 360.14 168.532 359.953 172.673 357.97C176.262 356.251 178.247 352.084 177.011 348.861C176.739 348.153 177.426 342.254 178.538 335.751C179.649 329.249 180.559 321.138 180.559 317.728C180.559 314.317 181.076 311.01 181.708 310.378C185.132 306.954 177.941 302.77 173.717 305.729C170.599 307.913 170.379 307.316 172.319 301.923C173.969 297.333 173.963 297.275 171.63 295.385C168.921 293.192 169.551 288.631 174.199 276.77C181.556 257.998 168.313 239.615 147.639 239.9C132.246 240.112 123.456 228.941 128.547 215.638C129.176 213.995 129.715 210.883 129.745 208.723C129.819 203.382 132.184 201.288 143.379 196.647C154.52 192.029 157.559 189.022 157.559 182.615C157.559 176.009 159.015 173.339 167.378 164.607C180.336 151.077 189.559 136.86 189.559 130.415C189.559 125.317 187.091 122.838 185.147 125.984C184.856 126.455 182.141 127.097 179.114 127.409C176.088 127.722 172.599 128.686 171.363 129.552C168.075 131.855 166.584 131.498 165.409 128.127C163.507 122.671 160.663 123.997 148.79 135.877Z" fill="#E8E8E8"/>
</svg>
