<svg width="61" height="61" viewBox="0 0 61 61" fill="none" xmlns="http://www.w3.org/2000/svg">
<mask id="mask0_106_19" style="mask-type:alpha" maskUnits="userSpaceOnUse" x="0" y="0" width="61" height="61">
<rect width="61" height="61" fill="#F6F1F1"/>
</mask>
<g mask="url(#mask0_106_19)">
<path d="M48.2917 30.5C48.2917 25.5438 46.5655 21.3394 43.113 17.887C39.6606 14.4345 35.4563 12.7083 30.5 12.7083V7.625C33.6771 7.625 36.653 8.22865 39.4276 9.43594C42.2023 10.6432 44.6168 12.2741 46.6714 14.3286C48.7259 16.3832 50.3568 18.7977 51.5641 21.5724C52.7714 24.347 53.375 27.3229 53.375 30.5H48.2917ZM38.125 30.5C38.125 28.3819 37.3837 26.5816 35.901 25.099C34.4184 23.6163 32.6181 22.875 30.5 22.875V17.7917C34.016 17.7917 37.013 19.0307 39.4911 21.5089C41.9693 23.987 43.2083 26.984 43.2083 30.5H38.125ZM50.7063 53.375C45.4111 53.375 40.1795 52.2207 35.0115 49.912C29.8434 47.6033 25.1413 44.3309 20.9052 40.0948C16.6691 35.8587 13.3967 31.1566 11.088 25.9885C8.77934 20.8205 7.625 15.5889 7.625 10.2938C7.625 9.53125 7.87917 8.89583 8.3875 8.3875C8.89583 7.87917 9.53125 7.625 10.2938 7.625H20.5875C21.1806 7.625 21.7101 7.82622 22.176 8.22865C22.642 8.63108 22.9174 9.10764 23.0021 9.65833L24.6542 18.5542C24.7389 19.2319 24.7177 19.8038 24.5906 20.2698C24.4635 20.7358 24.2306 21.1382 23.8917 21.4771L17.7281 27.7042C18.5753 29.2715 19.5814 30.7859 20.7464 32.2474C21.9113 33.7089 23.1927 35.1174 24.5906 36.4729C25.9038 37.7861 27.2806 39.004 28.7208 40.1266C30.1611 41.2491 31.6861 42.2764 33.2958 43.2083L39.2688 37.2354C39.65 36.8542 40.1477 36.5682 40.762 36.3776C41.3762 36.187 41.9799 36.134 42.5729 36.2188L51.3417 37.9979C51.9347 38.1674 52.4219 38.4745 52.8031 38.9193C53.1844 39.3641 53.375 39.8618 53.375 40.4125V50.7063C53.375 51.4688 53.1208 52.1042 52.6125 52.6125C52.1042 53.1208 51.4688 53.375 50.7063 53.375ZM15.3135 22.875L19.5073 18.6813L18.4271 12.7083H12.7719C12.9837 14.4451 13.2802 16.1608 13.6615 17.8552C14.0427 19.5497 14.5934 21.2229 15.3135 22.875ZM38.0615 45.6229C39.7135 46.3431 41.3974 46.9149 43.113 47.3385C44.8286 47.7622 46.5549 48.0375 48.2917 48.1646V42.5729L42.3188 41.3656L38.0615 45.6229Z" fill="#F6F1F1"/>
</g>
</svg>
